<?xml version="1.0" standalone="no"?>
<!DOCTYPE svg PUBLIC "-//W3C//DTD SVG 20010904//EN"
 "http://www.w3.org/TR/2001/REC-SVG-20010904/DTD/svg10.dtd">
<svg version="1.0" xmlns="http://www.w3.org/2000/svg"
 width="512.000000pt" height="512.000000pt" viewBox="0 0 512.000000 512.000000"
 preserveAspectRatio="xMidYMid meet">
<metadata>
Created by potrace 1.11, written by Peter Selinger 2001-2013
</metadata>
<g transform="translate(0.000000,512.000000) scale(0.100000,-0.100000)"
fill="#000000" stroke="none">
<path d="M1295 5100 c-344 -61 -619 -202 -848 -433 -207 -209 -358 -489 -411
-762 -9 -44 -19 -93 -23 -110 -11 -45 -13 -2371 -3 -2435 6 -30 12 -73 15 -95
4 -22 13 -67 22 -100 8 -33 16 -67 18 -75 20 -93 152 -361 222 -450 13 -18
102 -129 118 -148 5 -7 51 -49 100 -94 188 -169 430 -297 660 -352 195 -45
184 -45 1425 -43 646 2 1184 5 1195 9 11 3 43 9 70 13 28 5 52 9 55 10 3 0 30
7 60 14 110 26 282 98 404 169 133 78 325 244 401 347 17 22 32 42 35 45 11
11 60 79 60 84 0 3 13 24 29 48 27 39 52 90 110 220 26 60 66 197 80 274 6 33
14 73 18 89 11 45 13 2358 2 2435 -52 372 -194 665 -439 910 -66 66 -229 200
-244 200 -3 0 -22 12 -43 26 -21 14 -78 45 -128 69 -148 71 -251 103 -435 135
-98 17 -184 19 -1265 18 -1066 0 -1168 -2 -1260 -18z"/>
</g>
</svg>
