<?xml version="1.0" standalone="no"?>
<!DOCTYPE svg PUBLIC "-//W3C//DTD SVG 20010904//EN"
 "http://www.w3.org/TR/2001/REC-SVG-20010904/DTD/svg10.dtd">
<svg version="1.0" xmlns="http://www.w3.org/2000/svg"
 width="1024.000000pt" height="1024.000000pt" viewBox="0 0 1024.000000 1024.000000"
 preserveAspectRatio="xMidYMid meet">
<metadata>
Created by potrace 1.11, written by Peter Selinger 2001-2013
</metadata>
<g transform="translate(0.000000,1024.000000) scale(0.100000,-0.100000)"
fill="#000000" stroke="none">
<path d="M5561 9973 c-24 -20 -22 -43 3 -43 7 0 23 -11 36 -25 13 -14 29 -25
35 -25 6 0 47 -17 91 -39 68 -33 87 -49 138 -111 32 -40 63 -88 68 -107 5 -19
16 -37 24 -40 8 -3 14 -14 14 -24 0 -24 -65 -58 -84 -44 -61 45 -63 46 -90 34
-26 -12 -35 -29 -16 -29 5 0 12 -12 16 -27 14 -67 26 -91 49 -101 31 -14 32
-33 2 -68 -44 -51 -111 -29 -105 35 3 32 0 38 -29 50 -40 18 -42 38 -6 67 20
15 26 29 25 55 0 19 7 51 15 72 15 35 15 39 0 54 -24 24 -47 1 -41 -40 11 -76
-23 -70 -118 19 -31 30 -66 54 -77 54 -11 0 -27 7 -35 15 -14 14 -14 20 4 53
21 38 27 135 11 160 -10 17 -31 -36 -31 -78 0 -32 -35 -80 -58 -80 -9 0 -26
12 -37 26 -29 36 -91 46 -224 35 -97 -8 -118 -13 -197 -51 l-89 -42 -62 33
c-55 30 -64 32 -86 20 -25 -14 -41 -15 -119 -8 -40 3 -49 0 -54 -15 -6 -20
-30 -25 -36 -7 -6 17 -62 -15 -87 -50 -11 -16 -29 -48 -40 -72 -31 -72 -55
-88 -152 -97 -46 -5 -132 -7 -190 -4 -91 4 -115 1 -175 -19 -38 -12 -81 -32
-96 -45 -23 -18 -36 -21 -93 -18 -37 3 -71 6 -75 9 -8 5 -125 -32 -203 -63
-44 -18 -101 -83 -147 -166 -17 -33 -50 -86 -72 -118 -34 -52 -68 -117 -68
-133 0 -10 46 -5 62 8 9 6 33 55 53 107 40 103 58 131 76 113 7 -7 6 -21 -5
-48 -19 -44 -19 -48 -7 -40 5 3 25 39 45 80 44 92 132 185 192 203 50 15 94
16 94 2 0 -5 11 -10 25 -10 35 0 31 -13 -14 -49 -44 -35 -67 -40 -57 -13 7 16
6 16 -11 -1 -14 -14 -15 -19 -5 -26 11 -6 8 -15 -12 -37 -21 -24 -25 -26 -26
-11 0 10 -4 16 -9 12 -15 -9 -176 -257 -190 -292 -8 -18 -29 -42 -49 -54 l-37
-21 25 -20 c23 -19 24 -21 6 -33 -15 -12 -23 -11 -51 2 -44 21 -85 11 -85 -21
0 -30 -42 -82 -84 -102 -17 -9 -53 -40 -81 -70 -28 -30 -81 -70 -120 -92 -55
-31 -92 -63 -175 -155 -92 -101 -106 -113 -111 -94 -13 54 -25 -25 -28 -188
-2 -143 -6 -175 -22 -207 -10 -20 -19 -45 -19 -55 0 -9 -12 -54 -27 -99 -17
-53 -23 -88 -18 -100 6 -15 9 -11 16 22 4 22 26 83 49 135 58 131 139 205 133
122 -2 -18 4 -36 12 -43 23 -19 18 -76 -10 -119 -13 -22 -27 -52 -30 -68 l-6
-28 21 28 c12 15 26 27 31 27 19 0 8 -24 -27 -57 -46 -43 -53 -93 -14 -103 27
-6 25 0 60 -200 10 -63 21 -124 24 -135 3 -11 12 -69 21 -130 9 -60 27 -144
38 -185 20 -68 22 -99 22 -335 0 -143 4 -291 8 -330 16 -139 29 -210 44 -233
8 -13 20 -44 28 -68 15 -52 20 -49 -110 -84 -102 -28 -231 -79 -254 -102 -24
-22 -27 -65 -10 -154 14 -72 20 -80 63 -88 48 -9 122 -60 142 -97 18 -35 134
-320 166 -409 13 -36 20 -77 19 -118 -1 -44 2 -61 11 -60 19 4 22 -34 3 -44
-13 -8 -15 -19 -10 -61 5 -38 1 -75 -15 -137 -26 -97 -37 -268 -22 -320 9 -32
10 -30 11 35 2 92 22 185 62 281 l32 78 -12 88 c-7 49 -11 92 -8 94 2 3 21
-17 41 -44 108 -148 222 -200 492 -224 l131 -11 34 -46 c33 -45 37 -47 119
-63 70 -14 114 -28 139 -45 2 -2 -11 -32 -29 -69 -40 -78 -158 -194 -235 -231
-27 -13 -63 -31 -79 -40 -41 -22 -101 -28 -137 -13 -40 17 -50 3 -43 -65 2
-27 6 -108 7 -180 2 -71 7 -150 12 -175 8 -43 7 -44 -10 -30 -13 10 -8 -4 15
-45 19 -33 48 -87 66 -121 18 -33 66 -113 108 -176 95 -144 104 -169 80 -206
-10 -15 -26 -54 -35 -87 -12 -44 -21 -59 -32 -57 -9 1 -29 -4 -44 -12 -16 -7
-79 -33 -141 -56 -93 -35 -121 -42 -163 -38 -27 3 -58 13 -68 22 -11 10 -32
52 -47 94 -47 132 -125 319 -118 282 7 -36 45 -146 104 -300 17 -47 34 -92 37
-102 6 -21 -16 -32 -116 -61 -43 -13 -110 -42 -148 -65 -39 -24 -118 -57 -183
-78 -63 -20 -160 -57 -215 -82 -100 -45 -101 -46 -295 -64 -111 -10 -253 -31
-330 -47 -74 -16 -157 -33 -185 -37 -154 -21 -388 -75 -442 -103 -112 -57
-182 -135 -227 -254 -14 -37 -43 -91 -65 -120 -40 -52 -44 -55 -143 -87 -158
-51 -244 -93 -262 -128 -12 -23 -28 -34 -69 -47 -84 -26 -85 -28 -61 -72 111
-200 257 -405 417 -584 172 -193 459 -426 697 -566 74 -43 151 -86 170 -95 19
-9 76 -35 125 -58 333 -154 674 -238 1100 -270 194 -14 4258 -14 4450 0 459
35 746 108 1135 287 306 141 561 318 856 594 168 157 453 548 560 769 41 86
42 83 -36 130 -39 24 -101 54 -138 67 -88 32 -102 46 -102 99 0 31 -12 65 -40
120 -49 96 -68 115 -144 158 -75 41 -147 59 -251 62 -45 1 -99 9 -123 18 -32
12 -73 16 -150 15 -86 -1 -119 3 -172 21 -58 20 -68 21 -105 8 -56 -18 -178
-16 -256 6 -53 15 -92 17 -215 14 -129 -4 -156 -7 -197 -27 -53 -25 -77 -22
-77 8 0 24 87 76 143 86 75 14 57 52 -49 105 -56 29 -79 34 -177 41 l-112 9
-55 59 c-62 68 -124 100 -190 101 -40 1 -48 5 -71 38 -17 24 -42 44 -71 55
l-46 18 -38 -26 c-29 -20 -46 -25 -69 -21 -46 9 -185 72 -208 94 -17 18 -18
24 -7 78 7 32 35 128 62 214 27 85 55 184 63 220 43 205 146 540 197 643 38
76 47 120 13 60 -15 -27 -15 -27 -9 -3 4 14 27 70 51 125 44 98 83 215 83 245
-1 25 -16 -7 -45 -96 -15 -43 -57 -144 -95 -224 -98 -209 -99 -210 -210 -710
-22 -96 -44 -191 -50 -210 -6 -19 -26 -93 -45 -164 -19 -70 -40 -136 -48 -145
-8 -9 -17 -39 -20 -67 -7 -61 -36 -136 -50 -131 -6 2 -19 44 -28 93 -10 50
-27 114 -38 143 -15 37 -18 57 -12 70 13 23 3 60 -22 89 -29 32 -37 14 -37
-88 -1 -94 -22 -221 -33 -203 -4 6 -11 55 -16 107 -13 133 -17 137 -81 80 -51
-46 -107 -123 -122 -166 -20 -59 -96 -155 -173 -217 -95 -76 -148 -107 -233
-136 -37 -13 -89 -33 -117 -46 -27 -12 -62 -22 -78 -21 -45 1 -96 22 -102 42
-7 21 27 96 72 158 45 61 57 104 43 146 -16 50 -77 101 -129 110 -57 9 -101
51 -94 89 8 38 47 63 123 76 36 6 90 18 120 26 47 14 65 14 122 4 81 -15 176
-6 201 19 27 28 32 83 12 136 -10 25 -24 46 -31 46 -21 0 -28 39 -26 150 1 58
-2 110 -6 116 -4 5 -24 21 -46 34 -21 12 -58 40 -81 60 -42 36 -47 38 -142 45
-170 12 -198 20 -275 72 -80 55 -148 124 -148 151 0 26 36 63 93 97 26 15 54
40 62 55 14 27 13 30 -10 49 -53 41 -219 60 -320 36 -173 -41 -177 -41 -226
-12 -24 14 -87 35 -139 46 -52 11 -120 27 -150 36 -73 20 -79 20 -200 -16
-240 -69 -350 -42 -350 85 1 116 44 218 119 275 58 44 111 93 111 102 0 31 49
128 99 193 32 42 80 114 106 159 30 51 83 117 138 174 94 97 139 123 175 104
30 -16 132 -138 204 -243 68 -99 234 -280 279 -304 16 -8 45 -14 66 -14 52 0
78 -21 92 -74 6 -26 28 -64 51 -91 22 -25 44 -54 48 -63 19 -36 33 -119 34
-189 0 -77 6 -85 42 -58 34 26 73 18 119 -23 23 -21 58 -49 77 -62 19 -13 58
-43 85 -67 39 -34 57 -43 80 -41 52 5 46 43 -24 160 -39 65 -61 113 -61 132 0
17 -14 54 -30 81 -16 28 -30 58 -30 69 0 10 -31 48 -70 85 -38 36 -70 71 -70
77 0 8 56 10 189 6 391 -10 667 43 807 156 123 99 164 184 263 538 56 201 73
246 104 287 14 16 33 25 24 10 -3 -5 2 -87 10 -183 23 -274 13 -396 -78 -981
-10 -69 -19 -129 -19 -135 0 -5 35 -10 78 -11 l77 -2 -40 18 c-86 39 -93 73
-50 233 14 51 30 109 35 129 7 26 19 39 45 52 63 30 83 24 110 -35 13 -29 24
-47 24 -40 1 7 17 22 36 33 38 23 44 46 21 82 -8 12 -17 33 -21 46 -6 21 -5
23 23 16 17 -3 33 -2 36 3 7 11 11 221 4 227 -3 3 -12 3 -21 -1 -13 -5 -14
-10 -6 -25 5 -11 9 -39 7 -62 l-3 -42 -45 2 c-129 6 -156 6 -170 0 -13 -6 -15
9 -14 110 1 186 -3 175 47 120 43 -46 77 -61 77 -33 0 8 -16 47 -35 87 -52
110 -93 275 -94 376 l-1 51 44 17 c52 20 52 20 61 108 11 99 0 153 -33 169
-26 13 -27 17 -25 78 1 36 7 117 14 181 12 114 12 119 -11 180 -22 59 -23 77
-21 232 1 93 -3 339 -10 547 l-12 379 28 62 c26 59 27 65 15 115 -7 29 -10 71
-7 94 7 51 -16 219 -43 314 -10 39 -22 103 -26 141 -8 82 -18 109 -76 207 -30
49 -51 101 -65 159 -31 126 -81 197 -256 359 -78 73 -153 140 -166 148 -23 15
-25 15 -50 -15 -32 -38 -74 -47 -79 -18 -6 29 -23 47 -40 40 -21 -8 -95 56
-133 115 -25 39 -38 50 -59 50 -35 0 -79 47 -87 94 -7 42 -23 59 -23 24 0 -24
-34 -88 -48 -88 -4 0 -7 26 -7 58 -1 46 -7 69 -34 117 -18 33 -40 74 -49 90
-55 108 -128 185 -185 199 -15 4 -44 22 -65 40 -41 37 -84 52 -182 62 -56 5
-68 3 -89 -13z m-222 -252 c34 -32 39 -49 17 -57 -30 -12 -109 45 -100 71 10
24 50 17 83 -14z m-672 -33 c37 -35 29 -46 -37 -54 -33 -4 -63 -6 -67 -6 -13
2 -15 40 -3 61 15 29 76 28 107 -1z m-551 -203 c-7 -18 -1 -18 49 0 73 26 80
21 45 -31 -34 -49 -103 -104 -130 -104 -23 0 -40 20 -40 48 0 21 -3 23 -29 17
-39 -8 -111 11 -111 31 0 17 34 31 104 43 86 14 119 13 112 -4z m167 -42 c-8
-55 -23 -83 -65 -116 -31 -25 -40 -28 -53 -17 -8 7 -15 20 -15 28 0 16 117
142 132 142 4 0 4 -17 1 -37z m-462 -140 c12 -21 23 -39 24 -40 2 -5 74 24 87
35 8 6 18 8 22 4 4 -4 22 -12 39 -18 l32 -11 -28 -25 c-27 -25 -66 -38 -114
-38 -14 0 -63 -18 -110 -40 -47 -22 -89 -37 -94 -34 -20 12 -6 35 49 77 55 42
57 45 54 85 -4 52 9 53 39 5z m2039 -57 c0 -8 -4 -18 -10 -21 -5 -3 -10 3 -10
14 0 12 5 21 10 21 6 0 10 -6 10 -14z m-1941 -129 c19 -21 20 -26 7 -36 -12
-10 -17 -8 -27 11 -6 13 -13 25 -16 27 -2 3 -23 -17 -46 -44 -31 -35 -48 -47
-60 -42 -25 9 -21 25 14 58 25 24 65 43 100 48 3 1 15 -10 28 -22z m2891 -62
c33 -21 40 -31 40 -57 0 -31 16 -51 58 -68 31 -13 35 -30 22 -80 l-11 -41 -48
50 c-34 36 -56 51 -75 51 -14 0 -26 -4 -26 -10 0 -21 -27 -9 -62 28 -62 65
-61 103 6 132 53 24 50 24 96 -5z m201 -251 c10 -13 10 -17 -1 -24 -26 -16
-54 12 -33 33 10 11 19 8 34 -9z m-3131 -477 c14 -5 126 -11 250 -13 179 -2
235 1 273 13 31 10 64 13 95 9 26 -4 173 -10 327 -15 215 -6 292 -12 332 -25
54 -17 85 -20 448 -36 362 -15 400 -21 587 -86 90 -31 210 -73 268 -93 181
-63 298 -159 372 -305 73 -145 155 -425 165 -564 l6 -83 58 -70 c75 -89 75
-87 94 -204 9 -55 25 -145 36 -200 18 -89 19 -122 13 -315 -7 -234 -13 -260
-60 -260 -14 0 -72 9 -128 19 -55 11 -168 31 -251 46 -254 46 -258 47 -272 76
-9 19 -10 35 -2 63 17 63 -4 77 -166 110 -39 8 -115 24 -170 35 -109 24 -74
25 -435 -19 -41 -5 -102 -20 -135 -33 -33 -14 -97 -32 -143 -41 -98 -20 -178
-56 -261 -119 -113 -86 -130 -90 -246 -47 -52 20 -93 25 -216 29 -9 1 -52 25
-95 55 -108 73 -126 81 -229 101 -74 14 -113 16 -215 10 -69 -4 -195 -7 -281
-6 -151 2 -161 1 -285 -33 -71 -19 -160 -42 -197 -50 -37 -9 -81 -22 -96 -31
-43 -22 -94 -108 -96 -162 -1 -24 -6 -48 -11 -52 -11 -10 -79 -33 -194 -64
l-85 -24 -1 36 c0 20 -6 101 -12 181 -14 178 -15 380 -1 440 5 25 21 72 33
105 48 121 89 349 130 715 17 150 64 300 120 382 23 35 64 103 92 152 55 100
136 181 236 238 33 18 84 53 114 76 90 72 159 89 234 59z m-1230 -105 c0 -15
-28 -47 -35 -40 -11 11 5 48 21 48 8 0 14 -4 14 -8z m-69 -79 c10 -27 5 -73
-13 -106 -5 -10 -12 -16 -15 -13 -11 10 -23 99 -17 122 8 32 32 30 45 -3z m91
-155 c-6 -6 -15 -8 -19 -4 -4 4 -1 11 7 16 19 12 27 3 12 -12z m3158 -1887 c0
-11 -35 -21 -74 -21 -18 0 -26 4 -20 9 18 18 94 27 94 12z m-270 -46 c0 -3
-12 -10 -26 -15 -29 -11 -54 -3 -33 11 15 9 59 12 59 4z m399 -9 c8 -9 11 -46
9 -103 l-3 -88 -24 39 c-18 28 -41 46 -88 68 -58 28 -76 49 -54 62 12 8 113
35 132 35 9 1 22 -5 28 -13z m691 -15 c286 -37 372 -143 357 -440 -10 -206
-74 -443 -148 -552 -92 -136 -212 -191 -509 -235 -285 -41 -691 14 -850 116
-77 49 -155 151 -200 260 -31 76 -101 317 -120 418 -14 68 -9 151 11 195 20
44 27 31 17 -30 -18 -108 -1 -207 73 -448 43 -139 89 -233 147 -304 47 -58 52
-39 8 33 -31 52 -52 120 -91 303 -5 21 -3 21 53 -8 34 -18 85 -34 127 -39 53
-8 103 -26 205 -74 209 -99 246 -109 390 -104 101 3 124 7 147 24 37 28 73
102 95 198 19 83 64 178 104 221 21 23 30 25 112 25 72 0 94 4 112 18 14 11
20 24 16 31 -11 17 -74 47 -209 98 -67 25 -151 57 -187 70 -36 14 -99 31 -140
39 -87 17 -108 31 -90 63 6 12 22 26 36 31 58 22 205 6 342 -37 45 -14 86 -23
89 -19 9 9 -56 65 -119 103 -26 15 -48 33 -48 40 0 6 -6 14 -12 17 -18 8 191
-1 282 -13z m-2157 -60 c13 -5 27 -17 31 -26 10 -28 -107 -16 -137 13 l-21 22
51 0 c28 0 63 -4 76 -9z m105 -27 c22 -15 30 -48 13 -59 -11 -6 -51 42 -51 61
0 18 10 18 38 -2z m-1333 -84 c10 -11 18 -33 18 -48 0 -39 -80 -169 -130 -210
-53 -45 -63 -72 -51 -146 18 -117 77 -186 183 -210 32 -7 204 -92 264 -131
148 -93 269 -102 461 -36 47 16 130 41 185 56 55 14 123 35 152 47 28 11 58
18 67 15 9 -4 29 -34 46 -69 l30 -62 -25 -52 c-87 -179 -399 -304 -795 -321
-231 -10 -388 18 -493 88 -149 98 -344 520 -349 750 -1 62 3 82 22 116 25 45
47 60 63 44 6 -6 21 -68 33 -138 23 -129 49 -213 64 -213 4 0 6 17 3 38 -3 20
2 96 11 167 9 72 16 161 16 198 0 76 -1 76 115 113 87 28 88 29 110 4z m1035
-4 c0 -8 -7 -16 -15 -20 -10 -4 -15 1 -15 14 0 11 7 20 15 20 8 0 15 -6 15
-14z m2101 -156 c26 -15 26 -71 -1 -95 -23 -20 -151 -57 -162 -47 -5 6 11 91
27 140 5 15 108 17 136 2z m-2127 -1579 c23 -16 69 -58 100 -92 53 -57 58 -66
53 -97 -17 -100 -145 -169 -244 -131 -15 6 -55 13 -88 15 -76 6 -105 30 -105
87 0 21 8 52 18 69 20 36 187 178 209 178 8 0 34 -13 57 -29z m1240 -546 c21
-21 30 -55 18 -67 -6 -6 -53 -10 -112 -10 -70 1 -127 -5 -186 -19 -86 -20
-139 -22 -139 -4 0 5 27 29 60 55 60 45 60 45 160 51 174 10 183 10 199 -6z
m-1944 -745 c-17 -62 -22 -43 -7 26 6 32 13 49 15 37 2 -12 -2 -40 -8 -63z
m3360 -72 c50 -200 73 -359 69 -471 -2 -47 -7 -89 -11 -93 -25 -24 -98 82 -98
142 0 52 -14 59 -48 25 -30 -31 -74 -41 -87 -21 -8 13 -61 13 -87 -1 -26 -14
-31 -7 -17 24 17 38 84 62 134 48 35 -9 36 -9 21 8 -22 24 -20 39 11 84 21 31
28 52 29 98 3 77 42 199 64 199 5 0 14 -19 20 -42z m-484 -347 c-9 -61 -25
-144 -36 -186 -33 -128 -60 -283 -60 -342 0 -58 -25 -169 -42 -190 -6 -7 -22
-13 -37 -13 -18 0 -40 -13 -66 -41 -69 -70 -220 -169 -259 -169 -22 0 -191
-87 -238 -123 -24 -18 -62 -41 -86 -50 -46 -18 -112 -23 -112 -8 0 13 124 117
163 137 18 9 52 33 77 54 25 20 83 62 130 94 47 31 104 71 127 89 53 39 123
147 123 187 0 37 35 130 60 163 11 13 33 27 50 31 23 4 35 14 45 41 8 19 15
45 15 57 0 13 7 32 16 43 8 11 26 58 40 105 14 47 34 99 43 115 10 17 21 43
24 57 12 48 29 83 34 71 3 -7 -3 -62 -11 -122z m-2489 -116 c12 -8 37 -41 57
-73 23 -38 49 -65 76 -81 50 -28 63 -48 95 -141 23 -68 32 -80 127 -174 160
-157 361 -306 414 -306 14 0 34 -15 54 -39 17 -22 46 -50 66 -61 34 -22 124
-123 124 -141 0 -22 -54 -21 -114 3 -33 14 -104 38 -156 52 -201 57 -263 89
-422 217 l-96 79 -59 -43 c-129 -96 -248 -257 -278 -379 -14 -57 -22 -69 -83
-125 -37 -34 -70 -59 -73 -55 -9 9 -49 187 -49 215 0 12 8 43 17 70 16 44 16
49 1 75 -16 27 -16 29 6 57 l23 28 22 -37 c13 -20 25 -35 27 -33 2 2 28 79 58
173 47 148 58 172 88 197 40 34 144 87 170 87 10 0 18 4 18 9 0 12 -47 139
-106 288 -56 143 -58 174 -7 138z m2761 5 c39 0 -44 -94 -96 -107 -33 -8 -35
-2 -12 50 23 51 45 69 75 62 11 -3 26 -5 33 -5z m303 -188 c6 -21 9 -49 7 -62
-3 -24 -4 -23 -26 13 -12 21 -27 35 -32 32 -16 -10 -11 17 7 37 23 26 31 23
44 -20z m-5 -167 c7 -19 14 -49 13 -67 l-1 -33 -19 40 c-17 38 -26 95 -13 95
3 0 12 -16 20 -35z m-353 -84 c77 -20 206 -79 240 -109 10 -9 31 -35 46 -57
15 -22 40 -58 55 -80 24 -34 26 -45 20 -91 -5 -45 0 -69 45 -202 36 -105 50
-158 45 -176 -16 -64 -51 -43 -107 62 -46 87 -124 200 -191 278 -49 56 -161
110 -283 135 -126 27 -142 34 -138 56 47 231 39 217 124 209 37 -3 102 -15
144 -25z m285 -64 l-3 -22 -13 23 c-8 13 -11 31 -7 40 6 16 7 16 16 -1 6 -10
9 -28 7 -40z m132 -194 c0 -13 -4 -23 -9 -23 -10 0 -22 51 -14 64 8 12 23 -15
23 -41z"/>
<path d="M5822 9370 c0 -14 2 -19 5 -12 2 6 2 18 0 25 -3 6 -5 1 -5 -13z"/>
<path d="M1822 8758 c-20 -20 -15 -66 8 -78 34 -18 60 -3 60 34 0 35 -15 56
-40 56 -9 0 -21 -5 -28 -12z"/>
<path d="M7412 4600 c0 -14 2 -19 5 -12 2 6 2 18 0 25 -3 6 -5 1 -5 -13z"/>
<path d="M7401 4544 c0 -11 3 -14 6 -6 3 7 2 16 -1 19 -3 4 -6 -2 -5 -13z"/>
<path d="M2925 4420 c26 -46 51 -73 91 -96 25 -15 47 -24 50 -21 3 3 -6 12
-20 19 -14 7 -49 36 -78 63 -28 28 -48 43 -43 35z"/>
</g>
</svg>
