<?xml version="1.0" standalone="no"?>
<!DOCTYPE svg PUBLIC "-//W3C//DTD SVG 20010904//EN"
 "http://www.w3.org/TR/2001/REC-SVG-20010904/DTD/svg10.dtd">
<svg version="1.0" xmlns="http://www.w3.org/2000/svg"
 width="300.000000pt" height="300.000000pt" viewBox="0 0 300.000000 300.000000"
 preserveAspectRatio="xMidYMid meet">
<metadata>
Created by potrace 1.14, written by Peter Selinger 2001-2017
</metadata>
<g transform="translate(0.000000,300.000000) scale(0.100000,-0.100000)"
fill="#000000" stroke="none">
<path d="M0 1500 l0 -1500 140 0 140 0 0 55 0 55 75 2 c41 0 81 1 88 2 8 1 13
-18 15 -56 l3 -58 78 0 78 0 7 37 c3 21 6 50 6 65 0 29 7 32 118 43 l62 7 0
-76 0 -76 98 0 97 0 0 97 0 98 95 0 95 0 3 -97 3 -98 73 0 73 0 7 97 c4 54 10
100 14 104 4 3 31 4 60 1 l52 -4 0 -56 c0 -54 1 -57 25 -57 24 0 25 3 25 56
l0 56 47 6 c27 3 51 3 55 0 5 -2 8 -49 8 -104 l0 -99 80 0 80 0 0 100 0 100
95 0 95 0 0 -100 0 -100 95 0 94 0 3 72 3 73 75 -4 c104 -5 110 -9 110 -81 l0
-60 80 0 80 0 0 34 c0 19 4 45 9 58 8 22 12 23 92 18 l84 -5 3 -52 3 -53 140
0 139 0 0 1500 0 1500 -1500 0 -1500 0 0 -1500z m1470 1388 c0 -10 -19 -9 -45
2 -16 7 -14 8 12 7 18 -1 33 -5 33 -9z m-145 -18 c-3 -5 -11 -10 -16 -10 -6 0
-7 5 -4 10 3 6 11 10 16 10 6 0 7 -4 4 -10z m102 4 c-3 -3 -12 -4 -19 -1 -8 3
-5 6 6 6 11 1 17 -2 13 -5z m-44 -11 c-7 -2 -19 -2 -25 0 -7 3 -2 5 12 5 14 0
19 -2 13 -5z m-43 -17 c0 -2 -7 -7 -16 -10 -8 -3 -12 -2 -9 4 6 10 25 14 25 6z
m-105 -28 c-9 -6 -19 -7 -22 -4 -4 3 -1 6 6 6 7 0 9 4 6 10 -4 6 1 7 11 3 15
-6 15 -7 -1 -15z m50 -16 c-17 -15 -18 -15 -6 0 7 9 9 23 5 30 -6 10 -4 11 7
0 11 -10 10 -15 -6 -30z m-66 -28 c-6 -8 -26 -13 -43 -12 l-31 1 33 4 c24 3
32 9 28 18 -3 9 0 12 10 8 11 -4 12 -9 3 -19z m-79 -18 c0 -2 -7 -7 -16 -10
-8 -3 -12 -2 -9 4 6 10 25 14 25 6z m-56 -22 c-16 -13 -16 -15 -1 -10 24 8 21
3 -15 -24 -31 -22 -32 -22 -14 -2 11 12 16 22 11 22 -4 0 -2 7 5 15 7 8 17 15
23 15 6 0 2 -7 -9 -16z m-110 -70 c3 -8 2 -12 -4 -9 -6 3 -10 10 -10 16 0 14
7 11 14 -7z m49 -9 c-3 -8 -13 -15 -22 -15 -14 1 -14 2 2 11 9 6 14 15 11 21
-4 7 -2 8 4 4 6 -4 9 -13 5 -21z m-33 -44 c0 -5 -9 -19 -20 -32 l-20 -24 17
32 c19 34 23 39 23 24z m-62 -59 c9 9 12 9 12 0 0 -12 -12 -16 -37 -13 -7 1
-9 -7 -6 -21 3 -13 3 -20 -1 -17 -3 3 -8 20 -10 38 -3 29 -2 31 13 17 13 -12
20 -13 29 -4z m-41 -109 c-3 -10 -5 -2 -5 17 0 19 2 27 5 18 2 -10 2 -26 0
-35z m706 -8 c176 -31 270 -76 316 -152 14 -23 43 -67 65 -97 36 -51 39 -60
46 -153 4 -54 6 -99 5 -101 -1 -1 -26 3 -56 10 -30 7 -106 12 -169 12 -98 0
-127 -4 -193 -27 -93 -32 -106 -33 -179 -7 -114 40 -227 47 -382 23 l-39 -6 7
94 c6 81 12 105 46 174 21 44 46 107 55 139 11 37 29 71 47 89 l30 30 157 -6
c87 -4 197 -14 244 -22z m-716 -87 c-2 -13 -4 -5 -4 17 -1 22 1 32 4 23 2 -10
2 -28 0 -40z m10 -75 c-3 -10 -5 -4 -5 12 0 17 2 24 5 18 2 -7 2 -21 0 -30z
m10 -95 c-2 -13 -4 -3 -4 22 0 25 2 35 4 23 2 -13 2 -33 0 -45z m10 -110 c-2
-18 -4 -6 -4 27 0 33 2 48 4 33 2 -15 2 -42 0 -60z m475 -155 c46 -27 54 -57
33 -128 -23 -81 -63 -119 -140 -135 -68 -14 -162 -7 -204 14 -35 18 -61 79
-68 156 -6 66 9 85 84 107 71 20 252 11 295 -14z m576 2 c48 -20 58 -41 49
-115 -9 -72 -31 -116 -68 -135 -73 -38 -232 -27 -289 21 -31 27 -70 117 -70
163 0 62 82 93 235 87 65 -2 115 -9 143 -21z m-1051 -17 c-3 -8 -6 -5 -6 6 -1
11 2 17 5 13 3 -3 4 -12 1 -19z m15 -69 c11 -17 24 -57 29 -87 11 -71 29 -92
29 -35 0 23 5 45 10 48 6 3 10 1 10 -5 0 -35 36 -84 74 -101 53 -24 193 -26
259 -3 45 15 49 20 86 98 21 44 41 89 44 98 9 25 54 34 75 15 10 -9 26 -40 36
-69 45 -133 92 -162 258 -156 117 4 142 19 174 96 29 74 34 74 34 1 l1 -64 14
34 c8 18 15 42 15 54 0 11 10 39 22 63 19 39 26 44 55 44 20 0 41 -8 53 -20
42 -42 20 -192 -51 -331 -28 -57 -61 -81 -114 -83 -20 -1 -31 -15 -65 -84 -43
-90 -82 -151 -142 -224 l-39 -47 11 -77 c6 -44 17 -86 26 -95 13 -14 15 -34
12 -88 -3 -60 -8 -76 -40 -123 -57 -82 -287 -368 -295 -368 -9 1 -250 304
-294 370 -49 73 -61 143 -34 208 9 20 20 69 26 109 l10 73 -37 44 c-21 25 -41
43 -45 40 -4 -2 -11 1 -15 7 -4 8 -3 9 4 5 19 -12 14 0 -24 60 -20 31 -50 85
-66 120 -25 54 -34 64 -55 64 -46 0 -91 37 -122 102 -16 33 -31 56 -33 52 -3
-5 -3 -3 -2 4 2 7 -6 47 -17 89 -23 84 -21 143 6 173 11 12 12 19 5 22 -6 2
12 3 40 2 47 -2 54 -5 72 -35z m-137 2 c-3 -6 -11 -11 -17 -11 -6 0 -6 6 2 15
14 17 26 13 15 -4z m-38 -23 c-3 -8 -6 -5 -6 6 -1 11 2 17 5 13 3 -3 4 -12 1
-19z m40 -160 c-3 -8 -6 -5 -6 6 -1 11 2 17 5 13 3 -3 4 -12 1 -19z m115 -226
c-7 -2 -9 -9 -5 -15 3 -7 2 -8 -2 -4 -16 14 -14 36 3 29 10 -4 12 -7 4 -10z
m96 -32 c5 -13 3 -13 -13 0 -17 14 -17 13 -10 -10 8 -28 3 -26 -13 6 -10 19
-8 21 10 20 12 0 24 -8 26 -16z m0 -46 c-7 -15 -14 -21 -16 -15 -2 7 2 18 8
26 18 22 21 18 8 -11z m94 -160 c-9 -16 -10 -14 -9 8 1 15 6 23 11 18 4 -4 4
-16 -2 -26z m74 -81 c-3 -3 -8 2 -12 11 -3 9 -10 13 -15 10 -5 -3 -6 2 -3 11
6 14 9 13 21 -5 8 -12 12 -24 9 -27z m-32 -9 c3 -8 2 -12 -4 -9 -6 3 -10 10
-10 16 0 14 7 11 14 -7z m13 -166 c-3 -7 -5 -2 -5 12 0 14 2 19 5 13 2 -7 2
-19 0 -25z m16 -23 c-3 -9 -8 -14 -10 -11 -3 3 -2 9 2 15 9 16 15 13 8 -4z
m-115 -167 c-10 -58 -10 -58 -68 -86 l-58 -27 15 50 c10 35 25 60 51 82 20 18
41 33 46 33 4 0 5 8 2 18 -6 15 -5 15 8 2 12 -12 12 -25 4 -72z m-38 58 c0 -3
-4 -8 -10 -11 -5 -3 -10 -1 -10 4 0 6 5 11 10 11 6 0 10 -2 10 -4z m1012 -48
c29 -27 42 -52 68 -130 42 -129 88 -308 81 -312 -8 -5 -184 54 -195 65 -12 11
-8 121 5 133 6 6 32 2 71 -12 33 -12 62 -21 64 -20 1 2 -7 30 -17 63 -10 33
-19 68 -19 78 0 11 -18 25 -54 41 -56 25 -60 31 -71 104 -7 41 -6 43 11 33 11
-5 35 -25 56 -43z m-1054 6 c-12 -12 -17 -13 -23 -3 -5 8 -4 10 4 5 6 -4 14 0
17 9 4 9 9 13 12 10 3 -3 -1 -13 -10 -21z m-108 -24 c-8 -5 -22 -9 -30 -9 -10
0 -8 3 5 9 27 12 43 12 25 0z m27 -16 c-3 -3 -12 -4 -19 -1 -8 3 -5 6 6 6 11
1 17 -2 13 -5z m19 -172 c-9 -33 -16 -62 -16 -65 0 -3 29 4 65 16 35 11 67 19
69 16 3 -3 8 -34 12 -71 l7 -66 -101 -33 c-56 -18 -104 -30 -107 -27 -6 5 18
104 57 231 25 83 35 82 14 -1z m-307 54 c-8 -8 -119 -55 -119 -50 0 6 93 52
109 53 8 1 12 -1 10 -3z m-93 -15 c-8 -12 -66 -32 -66 -23 0 5 15 13 33 19 17
5 33 11 35 12 2 0 1 -3 -2 -8z m302 -98 l-3 -107 -75 -23 c-41 -13 -81 -23
-87 -23 -10 0 -13 25 -13 94 l0 93 83 36 c45 19 86 36 90 36 4 1 6 -47 5 -106z
m1463 73 l84 -34 3 -96 c2 -73 0 -96 -10 -96 -7 0 -47 11 -88 23 l-75 24 -3
106 c-1 59 -1 107 1 107 2 0 41 -15 88 -34z m-1804 -22 c-3 -3 -12 -4 -19 -1
-8 3 -5 6 6 6 11 1 17 -2 13 -5z m-244 -137 c-28 -33 -56 -45 -46 -20 3 7 8
11 13 8 4 -2 18 7 30 20 34 37 37 30 3 -8z m227 -60 l0 -84 -77 -11 c-43 -6
-82 -7 -86 -3 -5 5 -7 30 -5 57 l3 49 70 37 c39 21 76 38 83 38 9 0 12 -23 12
-83z m2184 47 l76 -36 0 -59 c0 -41 -4 -59 -12 -58 -7 0 -44 6 -83 12 l-70 12
-3 83 c-2 46 1 82 7 82 5 0 43 -16 85 -36z m-2450 -49 c-4 -8 -11 -15 -16 -15
-6 0 -5 6 2 15 7 8 14 15 16 15 2 0 1 -7 -2 -15z m1366 -40 c16 -19 -3 -45
-32 -45 -24 0 -34 26 -18 45 16 19 34 19 50 0z m-1443 -47 c-3 -7 -5 -2 -5 12
0 14 2 19 5 13 2 -7 2 -19 0 -25z m20 -80 c-3 -7 -5 -2 -5 12 0 14 2 19 5 13
2 -7 2 -19 0 -25z m-7 -32 c0 -8 -4 -17 -8 -20 -4 -2 -8 4 -8 15 0 10 4 19 8
19 4 0 8 -6 8 -14z"/>
<path d="M1500 280 c0 -5 9 -10 20 -10 11 0 20 5 20 10 0 6 -9 10 -20 10 -11
0 -20 -4 -20 -10z"/>
<path d="M1480 60 c0 -5 11 -10 25 -10 14 0 25 5 25 10 0 6 -11 10 -25 10 -14
0 -25 -4 -25 -10z"/>
<path d="M1480 19 c0 -14 7 -19 25 -19 15 0 25 6 25 14 0 7 -11 16 -25 18 -19
4 -25 1 -25 -13z"/>
</g>
</svg>
